<svg id="Layer_1" data-name="Layer 1" xmlns="http://www.w3.org/2000/svg" xmlns:xlink="http://www.w3.org/1999/xlink" viewBox="0 0 1544.17 1204.82"><defs><style>.cls-1{fill:url(#linear-gradient);}.cls-2{fill:url(#linear-gradient-2);}.cls-3{fill:url(#linear-gradient-3);}.cls-4{fill:url(#linear-gradient-4);}.cls-5{fill:url(#linear-gradient-5);}</style><linearGradient id="linear-gradient" x1="344.13" y1="1231.48" x2="1092.22" y2="1231.48" gradientUnits="userSpaceOnUse"><stop offset="0" stop-color="#ff4215"/><stop offset="1" stop-color="#ffdc00"/></linearGradient><linearGradient id="linear-gradient-2" x1="360.8" y1="663.16" x2="862.65" y2="663.16" xlink:href="#linear-gradient"/><linearGradient id="linear-gradient-3" x1="990.78" y1="1000.35" x2="1567.04" y2="1000.35" xlink:href="#linear-gradient"/><linearGradient id="linear-gradient-4" x1="1331.27" y1="1042.96" x2="1710.41" y2="1042.96" xlink:href="#linear-gradient"/><linearGradient id="linear-gradient-5" x1="1509.16" y1="1042.96" x2="1888.31" y2="1042.96" xlink:href="#linear-gradient"/></defs><path class="cls-1" d="M1088.41,798.8c0,.66.81,2.79,2.45,6.39s1.8,5.4.5,5.4H758.18V903a132.32,132.32,0,0,1,18.18-8.36,121.45,121.45,0,0,1,20.15-5.4,117.74,117.74,0,0,1,35.38-2.46,191.6,191.6,0,0,1,35.38,6.39,307.85,307.85,0,0,1,32.93,11.79q16.21,6.88,31.94,14.74a180.52,180.52,0,0,1,44.23,27.52q21.6,18.69,29.48,44.23a94.52,94.52,0,0,1,.49,49.63,163.32,163.32,0,0,1-19.16,45.71,197.44,197.44,0,0,1-32.93,40.78,151.84,151.84,0,0,1-43.73,29,10.54,10.54,0,0,1-6.39,0c-2.31-.65-4.42-1.31-6.39-2a266.23,266.23,0,0,1-28.5-10.81,140.08,140.08,0,0,0-13.76-6.88A51.61,51.61,0,0,1,842.7,1129l-5.9-3.93c-3.28-2.61-4.59-4.26-3.93-4.92q10.82-4.9,20.64-10.32a77.65,77.65,0,0,0,17.69-13.27,196.45,196.45,0,0,0,27.52-29.48,177.44,177.44,0,0,0,21.13-35.38,134.68,134.68,0,0,0,10.81-38.82,96.49,96.49,0,0,0-3.44-39.81q-3.93-12.76-15.72-26.54a.88.88,0,0,0-1-1l-1-1H888.89a46.65,46.65,0,0,0-8.84,1q-14.74,1-32.43,7.86a78.08,78.08,0,0,0-16.71,7.87l-15.73,9.83a144.37,144.37,0,0,0-43.73,53.56A138.54,138.54,0,0,0,758.18,1073v4.91q0,2-5.9,0c-3.93-1.31-6.56-2-7.86-2a79,79,0,0,1-14.25-4.91q-6.4-3-13.27-5.9-7.87-3.92-14.25-6.88a80.4,80.4,0,0,1-13.27-7.86c-.66-.64-2.3-2-4.91-3.93s-3.94-3.59-3.94-4.91V888.23h-8.84A335.16,335.16,0,0,0,605.84,904Q595,908.9,583.73,914.28a212.62,212.62,0,0,0-22.12,12.28,255.51,255.51,0,0,0-28,21.63,153.4,153.4,0,0,0-23.09,25.55q-21.63,32.43-9.83,69.78a103,103,0,0,0,7.86,17.69q4.9,8.85,9.83,16.71a342.18,342.18,0,0,0,28.5,34.4,49.78,49.78,0,0,0,4.42,3.93c1.63,1.32,3.1,2.63,4.43,3.93a31.29,31.29,0,0,1,2.45,3c1,1.32.82,1-.49-1l3.93,3.93q3.92,3.93,7.87,7.37t8.84,7.37l29.49,23.59q14.73,11.79,30.46,22.6h1a14.33,14.33,0,0,0,3.93,3,9.33,9.33,0,0,0,3.44,2.46,10,10,0,0,1,3.44,2.46c3.27,2,6,3.77,8.35,5.4s5.07,3.44,8.36,5.41q7.85,4.92,16.21,10.32t17.2,10.32a53.32,53.32,0,0,1,7.86,4.91,50.43,50.43,0,0,0,7.87,4.92c2.61,1.32,3.93,2.3,3.93,2.94l14.74,8.85A360.25,360.25,0,0,1,771,1269.57q36.35,22.62,71.25,48.16a514.62,514.62,0,0,1,65.36,57,319.32,319.32,0,0,1,45.21,61.92,198.3,198.3,0,0,1,23.59,72.73,201.64,201.64,0,0,1,1,44.23,301.77,301.77,0,0,1-6.88,42.26,134,134,0,0,1-36.37,65.85,158.92,158.92,0,0,1-63.88,40.3,304.77,304.77,0,0,1-74.69,15.72,340.42,340.42,0,0,1-81.58,0A478.28,478.28,0,0,1,634.34,1701q-25.56-7.87-50.61-18.18t-48.65-22.11q-25.58-12.79-50.62-27.52a434.86,434.86,0,0,1-47.67-32.44,301.3,301.3,0,0,1-31.45-30,115.43,115.43,0,0,1-22.6-36.86,113.77,113.77,0,0,1-8.85-38.82,88.13,88.13,0,0,1,6.88-38.82,144.26,144.26,0,0,1,20.64-35.87,338.36,338.36,0,0,1,26.54-30,173.11,173.11,0,0,1,32.92-24.08,55.34,55.34,0,0,1,38.82-6.39,129.81,129.81,0,0,1,27.52,9.34,254.72,254.72,0,0,1,26.54,14.25q2,2,7.86,4.91c3.93,2,6.54,3.94,7.87,5.9s1,2.95-1,2.95h-4.91a2.88,2.88,0,0,1-2-1,10.54,10.54,0,0,0-3.44.49,11.1,11.1,0,0,1-3.44.49q-6.88,0-10.81,3a137.62,137.62,0,0,0-19.65,10.81,108.35,108.35,0,0,0-16.71,13.76,207.57,207.57,0,0,0-48.16,63.88,82,82,0,0,0-7.86,35.38,134.8,134.8,0,0,0,4.91,36.37A122.53,122.53,0,0,0,483,1603.73a98.48,98.48,0,0,0,8.84,9.83l2,2h1a17.79,17.79,0,0,0,4.91,4.91q2,2,4.92,4.42c2,1.63,3.59,3.11,4.91,4.43a11,11,0,0,1,3,2,11.44,11.44,0,0,0,2.95,2,33.7,33.7,0,0,0,4.91,3.93q3,1.95-2.94-2a12.28,12.28,0,0,0,4.91,3,12.19,12.19,0,0,1,4.91,2.95,14.31,14.31,0,0,0,2.95,2.46,7.58,7.58,0,0,1,2,1.47,30.19,30.19,0,0,0,5.4,3,29.66,29.66,0,0,1,5.41,3c.64,0,1,.15,1,.49s.32.49,1,.49l5.9,2.95a28.16,28.16,0,0,0,3.44,1.47,27.51,27.51,0,0,1,3.44,1.48,2.88,2.88,0,0,0,2,1,38.82,38.82,0,0,0,8.84,3.93,2.85,2.85,0,0,0,2,1,2.83,2.83,0,0,1,2,1,3.84,3.84,0,0,1,2.46.49,3.92,3.92,0,0,0,2.46.49l3.93,2a31.52,31.52,0,0,0,8.84,2l1,1a4,4,0,0,1,2.95,1,32,32,0,0,1,9.82,2q4.9,1,10.82,2c3.93.64,7.52,1.3,10.81,2a29.58,29.58,0,0,1,4.91.49,36.7,36.7,0,0,0,5.9.49c.64.64,2.29,1,4.91,1h2q5.89,1,11.3,1.48c3.59.32,7.37.49,11.3.49a262.53,262.53,0,0,0,45.21,0q22.61-2,44.23-5.9a240.24,240.24,0,0,0,42.26-11.79,197.09,197.09,0,0,0,25.06-11.8,160.9,160.9,0,0,0,23.1-15.72,134.86,134.86,0,0,0,18.18-17.69,123.29,123.29,0,0,0,14.25-20.64,182,182,0,0,0,17.69-52.09,216.7,216.7,0,0,0-5.89-112q-2-4.92-3.93-9.82c-1.33-3.29-2.63-6.56-3.94-9.83a195.33,195.33,0,0,0-22.11-37.35q-13.26-17.68-28-34.4a56.6,56.6,0,0,0-4.42-3.93,50.14,50.14,0,0,1-4.43-3.93,7.26,7.26,0,0,1-1.47-2,5.53,5.53,0,0,0-2.46-2l-1-2-17.69-14.74q-18.68-15.71-37.35-28.5a.88.88,0,0,1,1,1,.88.88,0,0,0-1-1v-1h-2a.87.87,0,0,1-1-1l-2.94-2.95a12.65,12.65,0,0,0-4.92-3,12,12,0,0,1-4.91-2.94,199.41,199.41,0,0,0-19.66-12.78q-10.83-6.87-20.64-13.27t-20.64-12.28c-3.93-2.61-7.54-4.92-10.81-6.88l-1-1a2.8,2.8,0,0,1-2-1,104.88,104.88,0,0,0-13.76-8.35,100.6,100.6,0,0,1-13.76-8.36L606.82,1187q-19.67-12.75-37.84-26t-36.85-27q-20.64-16.7-40.79-34.4a312.35,312.35,0,0,1-36.86-38.33,213.61,213.61,0,0,1-26-39.8,83.53,83.53,0,0,1-9.34-45.7,73.32,73.32,0,0,1,13.76-36.86,210.14,210.14,0,0,1,26.54-30,240,240,0,0,1,42.75-29,277.48,277.48,0,0,1,48.65-20.15q63.88-17.68,129.73-3V810.59H384.7c-1.3,0-2.61-1.14-3.93-3.44a25.25,25.25,0,0,0-3.93-5.4,53.38,53.38,0,0,1-8.35-10.82q-3.44-5.89-7.37-11.79-3-5.89-6.39-12.28t-6.39-12.29c0-.64-.82-2.78-2.46-6.39s-2.12-5.4-1.47-5.4h706.65q2,0,4.42,3.44a40.84,40.84,0,0,0,4.43,5.4q6.85,10.83,14.74,23.59a77.43,77.43,0,0,1,7.37,11.3Q1085.46,792.92,1088.41,798.8Zm-326.3,485.51,1,1-2-2h-1A2.92,2.92,0,0,1,762.11,1284.31ZM901.67,916.74a30.88,30.88,0,0,0-3.44-1.48c-1-.32.49.49,4.42,2.46Zm-1-1,2,2Zm23.59,12.78v-1q3.91,2,2.94,1.47A7,7,0,0,0,924.28,928.53Z" transform="translate(-344.13 -515.37)"/><path class="cls-2" d="M859.17,809q-1.23,2.49-5.6,1.85a37.45,37.45,0,0,1-5.28-.33q-7.44-.66-14.45-1.45t-13.51-1.75c-.61.2-3-.07-7-.8s-8.43-1.53-13.2-2.38a112.18,112.18,0,0,1-12.89-3q-5.73-1.73-5.12-3a56.56,56.56,0,0,0,1.65-29.52,109.76,109.76,0,0,0-9.23-28q-6.48-13.39-13.9-26.47a143.52,143.52,0,0,0-17.32-24.3l.61,1.87q-19.8-19.32-48.06-32.79a28,28,0,0,1-7.14-2.82c-1.65-.83-1.7-1-.16-.47s1.2.48-1.08-.16a1.74,1.74,0,0,1-2.49-1.25,41.75,41.75,0,0,1-12.73-4.08,6.33,6.33,0,0,0-3.26-.48q-2,.15,3.26.48a2,2,0,0,1-1.55,0,2,2,0,0,0-1.55,0,23.11,23.11,0,0,0-6.83-1.89q8.08,2.52,4.19,1.72c-2.59-.52-4.39-1.3-5.44-2.35-1.44-.2-1.65-.31-.62-.31a12.94,12.94,0,0,1,3.27.48,15.54,15.54,0,0,1,2.32.78c.43.22-.51,0-2.79-.63a5.65,5.65,0,0,1-4.35-.63c3.74.83,6.16,1.42,7.3,1.73s.57.17-1.71-.47a2.83,2.83,0,0,0-2.17-.32,2.86,2.86,0,0,1-2.18-.32q10.58.66,5.59,1.26a29.41,29.41,0,0,1-3.88-.79,36.65,36.65,0,0,0-3.88-.79c7.25,1.07,9.64,1.48,7.14,1.27s-4.44-.43-5.9-.64a52.25,52.25,0,0,1-7.46-.65l-4.35-.63a30.24,30.24,0,0,1,5.9.64c.43.21-.09.21-1.55,0a42.32,42.32,0,0,0-5.28-.33,36.15,36.15,0,0,1-5.28-.32,7.5,7.5,0,0,0-3.11,0,7.67,7.67,0,0,1-3.11,0,2,2,0,0,1-1.55,0,4,4,0,0,0-2.49.3c2.7-.19,3.73-.19,3.11,0a61.76,61.76,0,0,0-12.44,0l-12.43,0-12.43,0a654.36,654.36,0,0,1-95.08-5.91q-23.91-3.5-47.37-8.7a190.35,190.35,0,0,1-44.55-15.84A107.55,107.55,0,0,1,384,598.23a74,74,0,0,1-17.94-26.16,51,51,0,0,1-4.88-28.92,48.19,48.19,0,0,1,12.52-26.38c1.05-1,3-1.5,5.75-1.38s4.93.28,6.37.49a74.47,74.47,0,0,1,13.67.66c4.35.64,9,1.17,14,1.6,4.35.64,8.92,1.38,13.67,2.23s9.32,1.58,13.67,2.22q-.92.3,5.28,1.88c4.15,1.06,6,2,5.58,2.81q-17.76,18.29-12.25,41.3a84.83,84.83,0,0,0,21.31,39.54l-.62-1.87a79.51,79.51,0,0,0,10.54,10,70.16,70.16,0,0,0,11.78,7.5,25.29,25.29,0,0,0,6.36,3.6q3.59,1.41,6.06,2.66a2.83,2.83,0,0,1,2.17.32l-1.24-.63,3.72,1.88a20.89,20.89,0,0,1,5.9,2.19c.63-.2,1.77.12,3.42,1q-5.6-1.26-4-1.26a6.26,6.26,0,0,1,2.79.63l4.35.64c-2.88-.42-4.7-.68-5.43-.8s-.36,0,1.08.16a2.87,2.87,0,0,0,2.18.32,2.82,2.82,0,0,1,2.17.32c-3.51-.22-5.69-.54-6.52-1s-.51-.51.93-.3a.87.87,0,0,0,1.24.62c1.47.22,1.82.28,1.09.16l-3.26-.48a29.94,29.94,0,0,0-3.73-.32c-1,0-.82.11.62.31a4,4,0,0,1,3.11,0q-11.79-1.28-9.79-1.43a8.73,8.73,0,0,1,4.51,1.11c1.25-.42,2-.3,2.17.31l-6.52-1,6.52,1a4,4,0,0,1,2.49-.3,2,2,0,0,0,1.55,0Q498,633.11,500,633a19.91,19.91,0,0,1,4.2.17l6.52,1a61.13,61.13,0,0,1,16.48-.25q4.35.64-.47.15c-3.21-.32-3.36-.27-.47.15a4.4,4.4,0,0,1,2-.14,4.34,4.34,0,0,0,2-.15,7.67,7.67,0,0,0,3.11,0,7.51,7.51,0,0,1,3.11,0,124.61,124.61,0,0,1,14.92-.26q6.85.33,14,0,19.91.69,39.32,1.53t38.68,2.77q28,3.19,55.45,8.11a394.47,394.47,0,0,1,54.19,13.7,229.05,229.05,0,0,1,34.29,16.12,192.24,192.24,0,0,1,31.16,22.32,94.14,94.14,0,0,1,19.35,24.15q7.57,13.56,14.36,27.87a190.34,190.34,0,0,1,9.07,29.09A49,49,0,0,1,859.17,809Z" transform="translate(-344.13 -515.37)"/><path class="cls-3" d="M1558.2,1023.86c.64,0,2.28.83,4.91,2.46s3.93,3.12,3.93,4.42v9.83a51,51,0,0,1-1,9.83,274.54,274.54,0,0,1-14.74,68.8,200.48,200.48,0,0,1-34.4,60.93q-39.33,52.11-103.2,70.77a204.1,204.1,0,0,1-74.2,5.9,308.13,308.13,0,0,1-72.24-16.71q-19.68-6.87-37.84-15.24t-35.87-18.18q-10.83-6.87-21.63-13.27t-21.62-14.25a268.51,268.51,0,0,1-30.47-27,259.26,259.26,0,0,1-25.55-31,214,214,0,0,1-32.92-69.28,226.56,226.56,0,0,1-7.37-77.16c0-.64,1.3-.49,3.93.49s5.56,2,8.84,2.95a82.31,82.31,0,0,1,9.34,3.44c3,1.32,4.74,2,5.4,2q10.82,4.93,20.64,9.83a112.73,112.73,0,0,1,18.68,11.79,2.76,2.76,0,0,0,2,1,2.89,2.89,0,0,1,2,1,7.38,7.38,0,0,0,3,1,7.93,7.93,0,0,1,3,1,4,4,0,0,1,2.94,1h1a81.46,81.46,0,0,0,14.74,2q16.7,2,29.48-1,21.62-3.92,40.3-19.66A83,83,0,0,0,1241.23,962a99.9,99.9,0,0,0,8.36-35.39,127.42,127.42,0,0,0-3.44-36.85,184.22,184.22,0,0,0-12.29-34.89,199.69,199.69,0,0,0-25.55-35.38l-6.88-6.88-2-2H1031.4c-1.3,0-3-1.14-4.91-3.44a29.61,29.61,0,0,1-3.93-5.4,91.13,91.13,0,0,1-7.38-10.82q-3.42-5.89-7.37-11.79a181.73,181.73,0,0,1-13.76-24.57l-2-5.9c-1.31-3.93-1.63-5.89-1-5.89h436.38q2,0,4.42,3.44a47.47,47.47,0,0,1,3.44,5.4q7.86,8.85,15.73,23.59,3.92,5.89,7.37,11.79t6.39,11.8l2,5.89c1.31,3.94,1.63,5.9,1,5.9H1219.12A58.88,58.88,0,0,1,1228,815c2.61,1.65,5.55,3.44,8.84,5.41q18.66,9.84,30.47,20.64a156.6,156.6,0,0,1,16.22,16.71q7.37,8.84,14.25,18.67a165.13,165.13,0,0,1,17.2,39.31,129.33,129.33,0,0,1,5.4,42.76,107.11,107.11,0,0,1-9.83,40.29q-8.83,19.17-27.52,32.93a83.69,83.69,0,0,1-43.73,15.23,169.47,169.47,0,0,1-46.69-3.44,301.47,301.47,0,0,1-34.39-11.79q-16.73-6.87-33.42-14.75-3,58,24.57,111.06,12.77,26.55,36.36,52.09l9.83,9.83q4.9,4.93,10.81,9.83a.88.88,0,0,1,1,1c1.3,1.32,2.28,2,2.94,2a13.67,13.67,0,0,0,3,2.46,14.71,14.71,0,0,1,3,2.45,23.52,23.52,0,0,1,5.9,3.94c-1.32-.65-1.81-1-1.48-1s.82.34,1.48,1c.64,0,1,.16,1,.49s.32.49,1,.49a2.87,2.87,0,0,0-2-1h1c2.61,1.32,4.58,2,5.9,2q3.91,1,7.37,2c2.29.66,4.42,1.32,6.39,2h2a2.92,2.92,0,0,1,2,1,10.84,10.84,0,0,1,3.44.5,10.77,10.77,0,0,0,3.44.49q6.87,1,13.27,2a86.37,86.37,0,0,0,13.27,1,247.43,247.43,0,0,0,49.14-3A196.79,196.79,0,0,0,1435.83,1159a239.61,239.61,0,0,0,33.91-50.61,404.33,404.33,0,0,1-38.33-17.69q-18.67-9.83-35.38-20.64a118.34,118.34,0,0,1-28.5-25.56,100,100,0,0,1-15.73-26,83.56,83.56,0,0,1-6.39-29.49,85,85,0,0,1,4.43-30,60,60,0,0,1,16.7-25.56,96.8,96.8,0,0,1,23.59-14.25,49.3,49.3,0,0,1,26.54-3.44,86.64,86.64,0,0,1,28.5,6.88q13.75,5.89,27.52,12.78t27,14.25a95.81,95.81,0,0,1,24.08,19.17c1.3,2,1,2.79-1,2.45a31.5,31.5,0,0,0-3.93-.49,111.48,111.48,0,0,1-11.3-4.42,121.15,121.15,0,0,0-11.3-4.42,83.81,83.81,0,0,0-10.81-5.41,82.52,82.52,0,0,1-10.81-5.4h-4.92a76.84,76.84,0,0,0-28.5,13.75,66.79,66.79,0,0,0-25.55,60,108.83,108.83,0,0,0,9.82,35.38,70.14,70.14,0,0,0,9.34,14.25c3.59,4.27,7.37,8.35,11.3,12.29,1.31,1.32,2.29,2,2.95,2a.86.86,0,0,0,1,1l1,1q10.8,4.92,21.62,10.81,21.6-48.15,23.59-105.16c0-.65,1.79-.5,5.4.49s5.73,1.81,6.39,2.45a74.53,74.53,0,0,1,12.78,4.92q5.89,2.94,12.78,5.9Q1546.38,1017,1558.2,1023.86Zm-430.48-13.75a.88.88,0,0,0-1-1c2,1.32,3,1.81,3,1.48S1129,1010.11,1127.72,1010.11Zm95.33,201.48h0Zm3,2c0,.66.64,1,2,1C1226.64,1214.53,1226,1214.21,1226,1213.55Zm3,2c-.66,0-1-.16-1-.5s-.34-.49-1-.49l3.93,2Zm-2-1,1,1A.88.88,0,0,0,1227,1214.53Zm1,1,2,1A2.87,2.87,0,0,0,1228,1215.52Zm205.41-132.69h0Zm12.77-153.32a15.3,15.3,0,0,1-1.47-1.47Q1445.16,928.55,1446.15,929.51Zm8.85,164.14q4.9,2,3.44,1.47A24.81,24.81,0,0,1,1455,1093.65Z" transform="translate(-344.13 -515.37)"/><path class="cls-4" d="M1705.62,798.8q1,1,3.44,6.39c1.62,3.6,1.79,5.4.49,5.4H1575.88v410.33a313.38,313.38,0,0,0,2,34.89c0,5.25.15,10.17.49,14.74s.49,9.51.49,14.75q-1,6.89-2,12.77a19.86,19.86,0,0,1-5.89,10.82,36.56,36.56,0,0,1-10.32,5.89,59.57,59.57,0,0,0-10.32,4.92q-11.79,8.83-8.85,23.58a8,8,0,0,1,1.48,2,7.92,7.92,0,0,0,1.47,2l1,2c3.28,1.31,5.24,3,5.9,4.91l71.75,31.46v-3a14.14,14.14,0,0,1,4.42-10.32c3-3,6-4.43,9.34-4.43a15.12,15.12,0,0,1,14.74,14.75,12.62,12.62,0,0,1-4.42,9.83,15.1,15.1,0,0,1-10.32,3.93c-2.63,0-4.59-.66-5.9-2l-97.3-42.26q-5.89-2-11.79-4.42c-3.94-1.65-7.87-3.44-11.8-5.41l-13.76-5.9a51.32,51.32,0,0,1-12.77-7.86,117.84,117.84,0,0,1-15.24-13.76q-7.37-7.85-3.44-18.67a18.56,18.56,0,0,1,8.36-11.8q6.4-3.91,13.26-7.86,11.8-5.9,13.76-20.64a64.94,64.94,0,0,0,1.48-17.69q-.51-8.85-1.48-17.69a317.8,317.8,0,0,1-2-35.38V810.59h-125.8c-1.31,0-2.78-1.14-4.43-3.44a42.1,42.1,0,0,0-4.42-5.4,91.08,91.08,0,0,1-7.37-10.82q-3.43-5.89-7.37-11.79a180.66,180.66,0,0,1-13.76-24.57c0-.64-.81-2.78-2.46-6.39s-1.79-5.4-.49-5.4h166.1V690.69c0-1.31,2-1.48,5.9-.5a40.74,40.74,0,0,0,7.86,1.48,125.31,125.31,0,0,1,27.52,11.79,200,200,0,0,1,26.53,13.76,46.14,46.14,0,0,1,5.9,3.93c2.61,2,3.93,3.61,3.93,4.92v16.71h93.37q2,0,4.42,3.44a47.47,47.47,0,0,1,3.44,5.4q7.86,8.85,15.73,23.59A139.79,139.79,0,0,1,1705.62,798.8Zm-160.21,550.38a7.71,7.71,0,0,0-2-1.47,8,8,0,0,1-2-1.48,8,8,0,0,0,2,1.48A7.71,7.71,0,0,1,1545.41,1349.18Zm1,0v0ZM1705.62,798.8h0Z" transform="translate(-344.13 -515.37)"/><path class="cls-5" d="M1883.51,798.8q1,1,3.44,6.39c1.62,3.6,1.79,5.4.49,5.4H1753.77v410.33a313.38,313.38,0,0,0,2,34.89c0,5.25.15,10.17.49,14.74s.49,9.51.49,14.75q-1,6.89-2,12.77a19.87,19.87,0,0,1-5.9,10.82,36.56,36.56,0,0,1-10.32,5.89,59.57,59.57,0,0,0-10.32,4.92q-11.79,8.83-8.85,23.58a8,8,0,0,1,1.48,2,7.92,7.92,0,0,0,1.47,2l1,2q4.9,2,5.89,4.91l71.75,31.46v-3a14.14,14.14,0,0,1,4.42-10.32c3-3,6.05-4.43,9.34-4.43a15.12,15.12,0,0,1,14.74,14.75,12.62,12.62,0,0,1-4.42,9.83,15.1,15.1,0,0,1-10.32,3.93c-2.63,0-4.59-.66-5.9-2l-97.3-42.26q-5.9-2-11.79-4.42c-3.93-1.65-7.86-3.44-11.8-5.41l-13.76-5.9a51.32,51.32,0,0,1-12.77-7.86,117.84,117.84,0,0,1-15.24-13.76q-7.37-7.85-3.44-18.67a18.56,18.56,0,0,1,8.36-11.8q6.4-3.91,13.27-7.86,11.79-5.9,13.76-20.64a65.33,65.33,0,0,0,1.47-17.69q-.51-8.85-1.47-17.69a315.43,315.43,0,0,1-2-35.38V810.59h-125.8c-1.31,0-2.78-1.14-4.42-3.44a42.92,42.92,0,0,0-4.43-5.4,92.29,92.29,0,0,1-7.37-10.82q-3.43-5.89-7.37-11.79A180.66,180.66,0,0,1,1513,754.57c0-.64-.81-2.78-2.46-6.39s-1.79-5.4-.49-5.4h166.1V690.69q0-2,5.9-.5a40.74,40.74,0,0,0,7.86,1.48,125.11,125.11,0,0,1,27.52,11.79A200.76,200.76,0,0,1,1744,717.22a46.21,46.21,0,0,1,5.89,3.93c2.61,2,3.93,3.61,3.93,4.92v16.71h93.37q2,0,4.42,3.44a49.35,49.35,0,0,1,3.45,5.4q7.85,8.85,15.72,23.59A139.79,139.79,0,0,1,1883.51,798.8Zm-160.2,550.38a7.58,7.58,0,0,0-2-1.47,8,8,0,0,1-2-1.48,8,8,0,0,0,2,1.48A7.58,7.58,0,0,1,1723.31,1349.18Zm1,0v0ZM1883.51,798.8h0Z" transform="translate(-344.13 -515.37)"/></svg>